<?xml version="1.0" encoding="iso-8859-1"?>
<!-- Uploaded to: SVG Repo, www.svgrepo.com, Generator: SVG Repo Mixer Tools -->
<svg height="800px" width="800px" version="1.1" id="Layer_1" xmlns="http://www.w3.org/2000/svg" xmlns:xlink="http://www.w3.org/1999/xlink" 
	 viewBox="0 0 512 512" xml:space="preserve">
<path style="fill:#ECEDEF;" d="M427.023,0H84.977c-4.428,0-8.017,3.588-8.017,8.017v495.967c0,4.428,3.588,8.017,8.017,8.017
	h290.739c32.711,0,59.324-26.612,59.324-59.324V8.017C435.04,3.588,431.451,0,427.023,0z"/>
<g>
	<path style="fill:#D9DCDF;" d="M427.023,246.38c-52.539,0-95.132,42.592-95.132,95.132s42.592,95.132,95.132,95.132
		c2.7,0,5.373-0.119,8.017-0.339V246.719C432.396,246.499,429.723,246.38,427.023,246.38z"/>
	<path style="fill:#D9DCDF;" d="M315.858,452.676v-34.205c0-4.427-3.589-8.017-8.017-8.017H8.017c-4.427,0-8.017,3.589-8.017,8.017
		v34.205C0,485.44,26.56,512,59.324,512h315.858C342.418,512,315.858,485.44,315.858,452.676z"/>
	<path style="fill:#D9DCDF;" d="M264.551,59.858H127.733c-4.428,0-8.017,3.588-8.017,8.017v162.472c0,4.428,3.588,8.017,8.017,8.017
		h136.818c4.428,0,8.017-3.588,8.017-8.017V67.875C272.568,63.446,268.98,59.858,264.551,59.858z"/>
</g>
<g>
	<path style="fill:#509FE8;" d="M196.142,153.921c19.156,0,34.739-15.583,34.739-34.739s-15.583-34.739-34.739-34.739
		s-34.739,15.583-34.739,34.739S176.986,153.921,196.142,153.921z"/>
	<path style="fill:#509FE8;" d="M213.244,153.921H179.04c-13.873,0-25.119,11.246-25.119,25.119v59.324h84.443V179.04
		C238.363,165.167,227.117,153.921,213.244,153.921z"/>
</g>
<g>
	<path style="fill:#B3B9BF;" d="M384.267,92.994h-85.512c-4.428,0-8.017-3.588-8.017-8.017c0-4.428,3.588-8.017,8.017-8.017h85.512
		c4.428,0,8.017,3.588,8.017,8.017C392.284,89.405,388.696,92.994,384.267,92.994z"/>
	<path style="fill:#B3B9BF;" d="M384.267,135.749h-85.512c-4.428,0-8.017-3.588-8.017-8.017c0-4.428,3.588-8.017,8.017-8.017h85.512
		c4.428,0,8.017,3.588,8.017,8.017C392.284,132.161,388.696,135.749,384.267,135.749z"/>
	<path style="fill:#B3B9BF;" d="M384.267,178.505h-85.512c-4.428,0-8.017-3.588-8.017-8.017c0-4.428,3.588-8.017,8.017-8.017h85.512
		c4.428,0,8.017,3.588,8.017,8.017C392.284,174.917,388.696,178.505,384.267,178.505z"/>
	<path style="fill:#B3B9BF;" d="M384.267,221.261h-85.512c-4.428,0-8.017-3.588-8.017-8.017s3.588-8.017,8.017-8.017h85.512
		c4.428,0,8.017,3.588,8.017,8.017S388.696,221.261,384.267,221.261z"/>
	<path style="fill:#B3B9BF;" d="M161.937,289.67h-8.551c-4.428,0-8.017-3.588-8.017-8.017s3.588-8.017,8.017-8.017h8.551
		c4.428,0,8.017,3.588,8.017,8.017S166.366,289.67,161.937,289.67z"/>
	<path style="fill:#B3B9BF;" d="M315.858,289.67H196.142c-4.428,0-8.017-3.588-8.017-8.017s3.588-8.017,8.017-8.017h119.716
		c4.428,0,8.017,3.588,8.017,8.017S320.286,289.67,315.858,289.67z"/>
	<path style="fill:#B3B9BF;" d="M161.937,332.426h-8.551c-4.428,0-8.017-3.588-8.017-8.017c0-4.428,3.588-8.017,8.017-8.017h8.551
		c4.428,0,8.017,3.588,8.017,8.017C169.954,328.838,166.366,332.426,161.937,332.426z"/>
	<path style="fill:#B3B9BF;" d="M315.858,332.426H196.142c-4.428,0-8.017-3.588-8.017-8.017c0-4.428,3.588-8.017,8.017-8.017
		h119.716c4.428,0,8.017,3.588,8.017,8.017C323.875,328.838,320.286,332.426,315.858,332.426z"/>
	<path style="fill:#B3B9BF;" d="M161.937,375.182h-8.551c-4.428,0-8.017-3.588-8.017-8.017c0-4.428,3.588-8.017,8.017-8.017h8.551
		c4.428,0,8.017,3.588,8.017,8.017C169.954,371.593,166.366,375.182,161.937,375.182z"/>
	<path style="fill:#B3B9BF;" d="M315.858,375.182H196.142c-4.428,0-8.017-3.588-8.017-8.017c0-4.428,3.588-8.017,8.017-8.017
		h119.716c4.428,0,8.017,3.588,8.017,8.017C323.875,371.593,320.286,375.182,315.858,375.182z"/>
</g>
<circle style="fill:#FFC44F;" cx="427.023" cy="341.511" r="76.96"/>
<path style="fill:#F7B14D;" d="M427.023,426.489c-46.857,0-84.977-38.12-84.977-84.977s38.12-84.977,84.977-84.977
	S512,294.654,512,341.511S473.88,426.489,427.023,426.489z M427.023,272.568c-38.015,0-68.944,30.928-68.944,68.944
	s30.928,68.944,68.944,68.944s68.944-30.928,68.944-68.944S465.038,272.568,427.023,272.568z"/>
<path style="fill:#C6803F;" d="M427.023,333.495c-5.01,0-9.086-4.076-9.086-9.086s4.076-9.086,9.086-9.086h17.102
	c4.428,0,8.017-3.588,8.017-8.017c0-4.428-3.588-8.017-8.017-8.017h-9.086v-9.086c0-4.428-3.588-8.017-8.017-8.017
	s-8.017,3.588-8.017,8.017v10.405c-9.93,3.354-17.102,12.752-17.102,23.8c0,13.851,11.268,25.119,25.119,25.119
	c5.01,0,9.086,4.076,9.086,9.086s-4.076,9.086-9.086,9.086h-17.102c-4.428,0-8.017,3.588-8.017,8.017
	c0,4.428,3.588,8.017,8.017,8.017h9.086v9.086c0,4.428,3.588,8.017,8.017,8.017s8.017-3.588,8.017-8.017v-10.405
	c9.93-3.354,17.102-12.752,17.102-23.8C452.142,344.763,440.874,333.495,427.023,333.495z"/>
</svg>